<mxfile host="app.diagrams.net" modified="2023-07-14T02:51:59.052Z" agent="Mozilla/5.0 (Windows NT 10.0; Win64; x64) AppleWebKit/537.36 (KHTML, like Gecko) Chrome/113.0.0.0 Safari/537.36" etag="7lZKEQ2UK9G9XPWTbnDL" version="21.6.2" type="github" pages="2">
  <diagram id="_KTrpDpM6XvxhdCiyDUc" name="第 2 页">
    <mxGraphModel dx="1674" dy="764" grid="1" gridSize="10" guides="1" tooltips="1" connect="1" arrows="1" fold="1" page="1" pageScale="1" pageWidth="4681" pageHeight="3300" math="0" shadow="0">
      <root>
        <mxCell id="0" />
        <mxCell id="1" parent="0" />
        <mxCell id="ehe_d6_MRZKihjsfzm0j-3" value="" style="edgeStyle=orthogonalEdgeStyle;rounded=0;orthogonalLoop=1;jettySize=auto;html=1;" edge="1" parent="1" source="ehe_d6_MRZKihjsfzm0j-1" target="ehe_d6_MRZKihjsfzm0j-2">
          <mxGeometry relative="1" as="geometry" />
        </mxCell>
        <mxCell id="ehe_d6_MRZKihjsfzm0j-1" value="get_rank_list" style="strokeWidth=2;html=1;shape=mxgraph.flowchart.start_1;whiteSpace=wrap;" vertex="1" parent="1">
          <mxGeometry x="430" y="180" width="100" height="60" as="geometry" />
        </mxCell>
        <mxCell id="ehe_d6_MRZKihjsfzm0j-5" value="" style="edgeStyle=orthogonalEdgeStyle;rounded=0;orthogonalLoop=1;jettySize=auto;html=1;" edge="1" parent="1" source="ehe_d6_MRZKihjsfzm0j-2" target="ehe_d6_MRZKihjsfzm0j-4">
          <mxGeometry relative="1" as="geometry" />
        </mxCell>
        <mxCell id="ehe_d6_MRZKihjsfzm0j-2" value="z_rank_db:get_rank_list(Src, ServerId, RankType, ActionId, RoleUid, Start, End)" style="whiteSpace=wrap;html=1;strokeWidth=2;" vertex="1" parent="1">
          <mxGeometry x="260" y="260" width="440" height="50" as="geometry" />
        </mxCell>
        <mxCell id="ehe_d6_MRZKihjsfzm0j-7" value="" style="edgeStyle=orthogonalEdgeStyle;rounded=0;orthogonalLoop=1;jettySize=auto;html=1;" edge="1" parent="1" source="ehe_d6_MRZKihjsfzm0j-4" target="ehe_d6_MRZKihjsfzm0j-6">
          <mxGeometry relative="1" as="geometry" />
        </mxCell>
        <mxCell id="ehe_d6_MRZKihjsfzm0j-9" value="" style="edgeStyle=orthogonalEdgeStyle;rounded=0;orthogonalLoop=1;jettySize=auto;html=1;" edge="1" parent="1" source="ehe_d6_MRZKihjsfzm0j-4" target="ehe_d6_MRZKihjsfzm0j-8">
          <mxGeometry relative="1" as="geometry" />
        </mxCell>
        <mxCell id="ehe_d6_MRZKihjsfzm0j-4" value="z_rank_server:get_rank_list(Maps, RankAction, RankType, ActionId, Key, Start, End)" style="whiteSpace=wrap;html=1;strokeWidth=2;" vertex="1" parent="1">
          <mxGeometry x="240" y="330" width="480" height="55" as="geometry" />
        </mxCell>
        <mxCell id="ehe_d6_MRZKihjsfzm0j-21" value="" style="edgeStyle=orthogonalEdgeStyle;rounded=0;orthogonalLoop=1;jettySize=auto;html=1;" edge="1" parent="1" source="ehe_d6_MRZKihjsfzm0j-6" target="ehe_d6_MRZKihjsfzm0j-20">
          <mxGeometry relative="1" as="geometry" />
        </mxCell>
        <mxCell id="ehe_d6_MRZKihjsfzm0j-6" value="Mod:get_view(Maps, ActionId, Key, Self, List)" style="whiteSpace=wrap;html=1;strokeWidth=2;" vertex="1" parent="1">
          <mxGeometry x="335" y="410" width="290" height="37.5" as="geometry" />
        </mxCell>
        <mxCell id="ehe_d6_MRZKihjsfzm0j-14" value="" style="edgeStyle=orthogonalEdgeStyle;rounded=0;orthogonalLoop=1;jettySize=auto;html=1;" edge="1" parent="1" source="ehe_d6_MRZKihjsfzm0j-8" target="ehe_d6_MRZKihjsfzm0j-13">
          <mxGeometry relative="1" as="geometry" />
        </mxCell>
        <mxCell id="ehe_d6_MRZKihjsfzm0j-8" value="z_rank_lib:ets_ranking(ServerKey, RankType, ActionId)" style="whiteSpace=wrap;html=1;strokeWidth=2;" vertex="1" parent="1">
          <mxGeometry x="770" y="337.5" width="330" height="40" as="geometry" />
        </mxCell>
        <mxCell id="ehe_d6_MRZKihjsfzm0j-19" value="" style="edgeStyle=orthogonalEdgeStyle;rounded=0;orthogonalLoop=1;jettySize=auto;html=1;" edge="1" parent="1" source="ehe_d6_MRZKihjsfzm0j-10" target="ehe_d6_MRZKihjsfzm0j-18">
          <mxGeometry relative="1" as="geometry" />
        </mxCell>
        <mxCell id="ehe_d6_MRZKihjsfzm0j-10" value="rpc:call(node(Pid), z_rank_lib, get_rank_list, [Ets, PageSize, Uid, Start, End])" style="whiteSpace=wrap;html=1;strokeWidth=2;" vertex="1" parent="1">
          <mxGeometry x="721.25" y="480" width="427.5" height="50" as="geometry" />
        </mxCell>
        <mxCell id="ehe_d6_MRZKihjsfzm0j-15" value="" style="edgeStyle=orthogonalEdgeStyle;rounded=0;orthogonalLoop=1;jettySize=auto;html=1;" edge="1" parent="1" source="ehe_d6_MRZKihjsfzm0j-13" target="ehe_d6_MRZKihjsfzm0j-10">
          <mxGeometry relative="1" as="geometry" />
        </mxCell>
        <mxCell id="ehe_d6_MRZKihjsfzm0j-13" value="z_rank_action:get_page_size(RankAction)" style="whiteSpace=wrap;html=1;strokeWidth=2;" vertex="1" parent="1">
          <mxGeometry x="790" y="410" width="290" height="42" as="geometry" />
        </mxCell>
        <mxCell id="ehe_d6_MRZKihjsfzm0j-18" value="z_rank_lib:get_rank_list(Ets, PageSize, Uid, Start, End)" style="whiteSpace=wrap;html=1;strokeWidth=2;" vertex="1" parent="1">
          <mxGeometry x="782.5" y="560" width="305" height="55" as="geometry" />
        </mxCell>
        <mxCell id="ehe_d6_MRZKihjsfzm0j-20" value="" style="strokeWidth=2;html=1;shape=mxgraph.flowchart.terminator;whiteSpace=wrap;" vertex="1" parent="1">
          <mxGeometry x="430" y="470" width="100" height="60" as="geometry" />
        </mxCell>
      </root>
    </mxGraphModel>
  </diagram>
  <diagram name="第 1 页" id="7TZODfo2czdLQ1VehOgU">
    <mxGraphModel dx="1674" dy="764" grid="1" gridSize="10" guides="1" tooltips="1" connect="1" arrows="1" fold="1" page="1" pageScale="1" pageWidth="4681" pageHeight="3300" math="0" shadow="0">
      <root>
        <mxCell id="0" />
        <mxCell id="1" parent="0" />
        <mxCell id="EMzOzfNaIFovosaDYvhn-5" value="rank_port" style="swimlane;fontStyle=0;childLayout=stackLayout;horizontal=1;startSize=26;fillColor=none;horizontalStack=0;resizeParent=1;resizeParentMax=0;resizeLast=0;collapsible=1;marginBottom=0;whiteSpace=wrap;html=1;" vertex="1" parent="1">
          <mxGeometry x="425" y="220" width="110" height="52" as="geometry" />
        </mxCell>
        <mxCell id="EMzOzfNaIFovosaDYvhn-6" value="+ get_rank_list" style="text;strokeColor=none;fillColor=none;align=left;verticalAlign=top;spacingLeft=4;spacingRight=4;overflow=hidden;rotatable=0;points=[[0,0.5],[1,0.5]];portConstraint=eastwest;whiteSpace=wrap;html=1;" vertex="1" parent="EMzOzfNaIFovosaDYvhn-5">
          <mxGeometry y="26" width="110" height="26" as="geometry" />
        </mxCell>
        <mxCell id="EMzOzfNaIFovosaDYvhn-9" value="z_rank_db" style="swimlane;fontStyle=0;childLayout=stackLayout;horizontal=1;startSize=26;fillColor=none;horizontalStack=0;resizeParent=1;resizeParentMax=0;resizeLast=0;collapsible=1;marginBottom=0;whiteSpace=wrap;html=1;" vertex="1" parent="1">
          <mxGeometry x="410" y="430" width="140" height="230" as="geometry" />
        </mxCell>
        <mxCell id="EMzOzfNaIFovosaDYvhn-10" value="&lt;div&gt;+ node_start/1&lt;/div&gt;&lt;div&gt;+ start_rank_server/4&lt;/div&gt;&lt;div&gt;+ stop_rank_server/4&lt;/div&gt;&lt;div&gt;+ clear_rank_list/4&lt;/div&gt;&lt;div&gt;+ get_rank_list/7&lt;/div&gt;&lt;div&gt;+ modify/7&lt;/div&gt;&lt;div&gt;+ delete/5&lt;/div&gt;" style="text;strokeColor=none;fillColor=none;align=left;verticalAlign=top;spacingLeft=4;spacingRight=4;overflow=hidden;rotatable=0;points=[[0,0.5],[1,0.5]];portConstraint=eastwest;whiteSpace=wrap;html=1;" vertex="1" parent="EMzOzfNaIFovosaDYvhn-9">
          <mxGeometry y="26" width="140" height="114" as="geometry" />
        </mxCell>
        <mxCell id="EMzOzfNaIFovosaDYvhn-11" value="&lt;div&gt;+ start/3&lt;/div&gt;&lt;div&gt;+ stop/3&lt;/div&gt;&lt;div&gt;+ merge/3&lt;/div&gt;&lt;div&gt;+ exit/3&lt;/div&gt;&lt;div&gt;+ mod_state/2&lt;/div&gt;" style="text;strokeColor=none;fillColor=none;align=left;verticalAlign=top;spacingLeft=4;spacingRight=4;overflow=hidden;rotatable=0;points=[[0,0.5],[1,0.5]];portConstraint=eastwest;whiteSpace=wrap;html=1;" vertex="1" parent="EMzOzfNaIFovosaDYvhn-9">
          <mxGeometry y="140" width="140" height="90" as="geometry" />
        </mxCell>
        <mxCell id="EMzOzfNaIFovosaDYvhn-13" value="&lt;p style=&quot;margin:0px;margin-top:4px;text-align:center;&quot;&gt;&lt;i&gt;&amp;lt;&amp;lt;Interface&amp;gt;&amp;gt;&lt;/i&gt;&lt;br&gt;&lt;/p&gt;&lt;div style=&quot;text-align: center;&quot;&gt;&lt;b&gt;z_rank_behaviour&lt;/b&gt;&lt;/div&gt;&lt;hr size=&quot;1&quot;&gt;&lt;p style=&quot;margin:0px;margin-left:4px;&quot;&gt;+ get_maps/3&lt;/p&gt;&lt;p style=&quot;margin:0px;margin-left:4px;&quot;&gt;+ table/2&lt;/p&gt;&lt;p style=&quot;margin:0px;margin-left:4px;&quot;&gt;+ get_key/2&lt;/p&gt;&lt;p style=&quot;margin:0px;margin-left:4px;&quot;&gt;+ get_child_type/4&lt;/p&gt;&lt;p style=&quot;margin:0px;margin-left:4px;&quot;&gt;+ get_view/5&lt;/p&gt;&lt;p style=&quot;margin:0px;margin-left:4px;&quot;&gt;+ check/6&lt;/p&gt;&lt;p style=&quot;margin:0px;margin-left:4px;&quot;&gt;+ get_sort_value/6&lt;/p&gt;&lt;p style=&quot;margin:0px;margin-left:4px;&quot;&gt;+ to_sort_value/1&lt;/p&gt;&lt;p style=&quot;margin:0px;margin-left:4px;&quot;&gt;+ to_real_value/1&lt;/p&gt;" style="verticalAlign=top;align=left;overflow=fill;fontSize=12;fontFamily=Helvetica;html=1;whiteSpace=wrap;" vertex="1" parent="1">
          <mxGeometry x="180" y="730" width="200" height="180" as="geometry" />
        </mxCell>
        <mxCell id="EMzOzfNaIFovosaDYvhn-14" value="z_rank_dynamic" style="swimlane;fontStyle=0;childLayout=stackLayout;horizontal=1;startSize=26;fillColor=none;horizontalStack=0;resizeParent=1;resizeParentMax=0;resizeLast=0;collapsible=1;marginBottom=0;whiteSpace=wrap;html=1;" vertex="1" parent="1">
          <mxGeometry x="420" y="734" width="130" height="100" as="geometry" />
        </mxCell>
        <mxCell id="EMzOzfNaIFovosaDYvhn-15" value="&lt;div&gt;+ is_open/3&lt;/div&gt;&lt;div&gt;+ get_action_ids/2&lt;/div&gt;&lt;div&gt;+ add/4&lt;/div&gt;&lt;div&gt;+ remove/4&lt;/div&gt;" style="text;strokeColor=none;fillColor=none;align=left;verticalAlign=top;spacingLeft=4;spacingRight=4;overflow=hidden;rotatable=0;points=[[0,0.5],[1,0.5]];portConstraint=eastwest;whiteSpace=wrap;html=1;" vertex="1" parent="EMzOzfNaIFovosaDYvhn-14">
          <mxGeometry y="26" width="130" height="74" as="geometry" />
        </mxCell>
        <mxCell id="EMzOzfNaIFovosaDYvhn-18" value="z_rank_event" style="swimlane;fontStyle=0;childLayout=stackLayout;horizontal=1;startSize=26;fillColor=none;horizontalStack=0;resizeParent=1;resizeParentMax=0;resizeLast=0;collapsible=1;marginBottom=0;whiteSpace=wrap;html=1;" vertex="1" parent="1">
          <mxGeometry x="270" y="282" width="140" height="70" as="geometry" />
        </mxCell>
        <mxCell id="EMzOzfNaIFovosaDYvhn-19" value="+ handle/4&lt;br&gt;+ delete/4" style="text;strokeColor=none;fillColor=none;align=left;verticalAlign=top;spacingLeft=4;spacingRight=4;overflow=hidden;rotatable=0;points=[[0,0.5],[1,0.5]];portConstraint=eastwest;whiteSpace=wrap;html=1;" vertex="1" parent="EMzOzfNaIFovosaDYvhn-18">
          <mxGeometry y="26" width="140" height="44" as="geometry" />
        </mxCell>
        <mxCell id="EMzOzfNaIFovosaDYvhn-22" value="z_rank_lib" style="swimlane;fontStyle=0;childLayout=stackLayout;horizontal=1;startSize=26;fillColor=none;horizontalStack=0;resizeParent=1;resizeParentMax=0;resizeLast=0;collapsible=1;marginBottom=0;whiteSpace=wrap;html=1;" vertex="1" parent="1">
          <mxGeometry x="460" y="1060" width="130" height="130" as="geometry" />
        </mxCell>
        <mxCell id="EMzOzfNaIFovosaDYvhn-23" value="&lt;div&gt;+ ets_sort/3&lt;/div&gt;&lt;div&gt;+ ets_map/3&lt;/div&gt;&lt;div&gt;+ ets_ranking/3&lt;/div&gt;&lt;div&gt;+ calc_next_time/3&lt;/div&gt;&lt;div&gt;+ get_rank_list/5&lt;/div&gt;&lt;div&gt;+ refresh_rank_list/7&lt;/div&gt;" style="text;strokeColor=none;fillColor=none;align=left;verticalAlign=top;spacingLeft=4;spacingRight=4;overflow=hidden;rotatable=0;points=[[0,0.5],[1,0.5]];portConstraint=eastwest;whiteSpace=wrap;html=1;" vertex="1" parent="EMzOzfNaIFovosaDYvhn-22">
          <mxGeometry y="26" width="130" height="104" as="geometry" />
        </mxCell>
        <mxCell id="EMzOzfNaIFovosaDYvhn-26" value="&lt;p style=&quot;margin:0px;margin-top:4px;text-align:center;&quot;&gt;&lt;i&gt;&amp;lt;&amp;lt;Interface&amp;gt;&amp;gt;&lt;/i&gt;&lt;br&gt;&lt;b&gt;z_server_behaviour&lt;/b&gt;&lt;/p&gt;&lt;hr size=&quot;1&quot;&gt;&lt;p style=&quot;margin:0px;margin-left:4px;&quot;&gt;+ start/3&lt;/p&gt;&lt;p style=&quot;margin:0px;margin-left:4px;&quot;&gt;+ stop/3&lt;/p&gt;&lt;p style=&quot;margin:0px;margin-left:4px;&quot;&gt;+ merge/3&lt;/p&gt;&lt;p style=&quot;margin:0px;margin-left:4px;&quot;&gt;+ exit/3&lt;/p&gt;&lt;p style=&quot;margin:0px;margin-left:4px;&quot;&gt;+ mod_state/2&lt;/p&gt;" style="verticalAlign=top;align=left;overflow=fill;fontSize=12;fontFamily=Helvetica;html=1;whiteSpace=wrap;" vertex="1" parent="1">
          <mxGeometry x="580" y="257" width="130" height="120" as="geometry" />
        </mxCell>
        <mxCell id="zg2woen_plqJoiy4kxWq-1" value="«interface»&lt;br&gt;&lt;b&gt;gen_server&lt;/b&gt;" style="html=1;whiteSpace=wrap;" vertex="1" parent="1">
          <mxGeometry x="670" y="640" width="110" height="50" as="geometry" />
        </mxCell>
        <mxCell id="zg2woen_plqJoiy4kxWq-2" value="z_rank_server" style="swimlane;fontStyle=0;childLayout=stackLayout;horizontal=1;startSize=26;fillColor=none;horizontalStack=0;resizeParent=1;resizeParentMax=0;resizeLast=0;collapsible=1;marginBottom=0;whiteSpace=wrap;html=1;" vertex="1" parent="1">
          <mxGeometry x="590" y="734" width="150" height="288" as="geometry" />
        </mxCell>
        <mxCell id="zg2woen_plqJoiy4kxWq-3" value="&lt;div&gt;+ get_rank_list/7&lt;/div&gt;&lt;div&gt;+ modify/6&lt;/div&gt;&lt;div&gt;+ modify_remote/7&lt;/div&gt;&lt;div&gt;+ delete/4]).&lt;/div&gt;&lt;div&gt;&lt;br&gt;&lt;/div&gt;&lt;div&gt;+ start/4&lt;/div&gt;&lt;div&gt;+ stop/3&lt;/div&gt;&lt;div&gt;+ clear/3&lt;/div&gt;&lt;div&gt;+ start_link/3&lt;/div&gt;&lt;div&gt;+ find_node/5&lt;/div&gt;" style="text;strokeColor=none;fillColor=none;align=left;verticalAlign=top;spacingLeft=4;spacingRight=4;overflow=hidden;rotatable=0;points=[[0,0.5],[1,0.5]];portConstraint=eastwest;whiteSpace=wrap;html=1;" vertex="1" parent="zg2woen_plqJoiy4kxWq-2">
          <mxGeometry y="26" width="150" height="164" as="geometry" />
        </mxCell>
        <mxCell id="zg2woen_plqJoiy4kxWq-4" value="&lt;div&gt;+ init/1&lt;/div&gt;&lt;div&gt;+ handle_call/3&lt;/div&gt;&lt;div&gt;+ handle_cast/2&lt;/div&gt;&lt;div&gt;+ handle_info/2&lt;/div&gt;&lt;div&gt;+ terminate/2&lt;/div&gt;&lt;div&gt;+ code_change/3&lt;/div&gt;" style="text;strokeColor=none;fillColor=none;align=left;verticalAlign=top;spacingLeft=4;spacingRight=4;overflow=hidden;rotatable=0;points=[[0,0.5],[1,0.5]];portConstraint=eastwest;whiteSpace=wrap;html=1;" vertex="1" parent="zg2woen_plqJoiy4kxWq-2">
          <mxGeometry y="190" width="150" height="98" as="geometry" />
        </mxCell>
        <mxCell id="zg2woen_plqJoiy4kxWq-6" value="Use" style="endArrow=open;endSize=12;dashed=1;html=1;rounded=0;exitX=0.421;exitY=1.023;exitDx=0;exitDy=0;exitPerimeter=0;entryX=0.25;entryY=0;entryDx=0;entryDy=0;" edge="1" parent="1" source="EMzOzfNaIFovosaDYvhn-19" target="EMzOzfNaIFovosaDYvhn-9">
          <mxGeometry width="160" relative="1" as="geometry">
            <mxPoint x="590" y="590" as="sourcePoint" />
            <mxPoint x="750" y="590" as="targetPoint" />
          </mxGeometry>
        </mxCell>
        <mxCell id="zg2woen_plqJoiy4kxWq-7" value="" style="endArrow=block;dashed=1;endFill=0;endSize=12;html=1;rounded=0;entryX=0.362;entryY=0.992;entryDx=0;entryDy=0;entryPerimeter=0;exitX=0.65;exitY=-0.004;exitDx=0;exitDy=0;exitPerimeter=0;" edge="1" parent="1" source="EMzOzfNaIFovosaDYvhn-9" target="EMzOzfNaIFovosaDYvhn-26">
          <mxGeometry width="160" relative="1" as="geometry">
            <mxPoint x="590" y="590" as="sourcePoint" />
            <mxPoint x="750" y="590" as="targetPoint" />
          </mxGeometry>
        </mxCell>
        <mxCell id="zg2woen_plqJoiy4kxWq-8" value="Use" style="endArrow=open;endSize=12;dashed=1;html=1;rounded=0;exitX=0.5;exitY=1.192;exitDx=0;exitDy=0;exitPerimeter=0;" edge="1" parent="1" source="EMzOzfNaIFovosaDYvhn-6" target="EMzOzfNaIFovosaDYvhn-9">
          <mxGeometry width="160" relative="1" as="geometry">
            <mxPoint x="339" y="363" as="sourcePoint" />
            <mxPoint x="455" y="440" as="targetPoint" />
          </mxGeometry>
        </mxCell>
        <mxCell id="zg2woen_plqJoiy4kxWq-9" value="Use" style="endArrow=open;endSize=12;dashed=1;html=1;rounded=0;exitX=0.214;exitY=1.033;exitDx=0;exitDy=0;exitPerimeter=0;entryX=0.585;entryY=0.006;entryDx=0;entryDy=0;entryPerimeter=0;" edge="1" parent="1" source="EMzOzfNaIFovosaDYvhn-11" target="EMzOzfNaIFovosaDYvhn-13">
          <mxGeometry width="160" relative="1" as="geometry">
            <mxPoint x="339" y="363" as="sourcePoint" />
            <mxPoint x="455" y="440" as="targetPoint" />
          </mxGeometry>
        </mxCell>
        <mxCell id="zg2woen_plqJoiy4kxWq-10" value="Use" style="endArrow=open;endSize=12;dashed=1;html=1;rounded=0;exitX=0.45;exitY=1.044;exitDx=0;exitDy=0;exitPerimeter=0;entryX=0.438;entryY=-0.04;entryDx=0;entryDy=0;entryPerimeter=0;" edge="1" parent="1" source="EMzOzfNaIFovosaDYvhn-11" target="EMzOzfNaIFovosaDYvhn-14">
          <mxGeometry width="160" relative="1" as="geometry">
            <mxPoint x="349" y="373" as="sourcePoint" />
            <mxPoint x="465" y="450" as="targetPoint" />
          </mxGeometry>
        </mxCell>
        <mxCell id="zg2woen_plqJoiy4kxWq-11" value="Use" style="endArrow=open;endSize=12;dashed=1;html=1;rounded=0;exitX=0.629;exitY=1;exitDx=0;exitDy=0;exitPerimeter=0;entryX=0.5;entryY=0;entryDx=0;entryDy=0;" edge="1" parent="1" source="EMzOzfNaIFovosaDYvhn-11" target="zg2woen_plqJoiy4kxWq-2">
          <mxGeometry width="160" relative="1" as="geometry">
            <mxPoint x="359" y="383" as="sourcePoint" />
            <mxPoint x="475" y="460" as="targetPoint" />
          </mxGeometry>
        </mxCell>
        <mxCell id="zg2woen_plqJoiy4kxWq-12" value="Use" style="endArrow=open;endSize=12;dashed=1;html=1;rounded=0;exitX=0.45;exitY=1.02;exitDx=0;exitDy=0;exitPerimeter=0;entryX=0.662;entryY=0;entryDx=0;entryDy=0;entryPerimeter=0;" edge="1" parent="1" source="zg2woen_plqJoiy4kxWq-4" target="EMzOzfNaIFovosaDYvhn-22">
          <mxGeometry width="160" relative="1" as="geometry">
            <mxPoint x="619.96" y="844.0060000000001" as="sourcePoint" />
            <mxPoint x="485" y="470" as="targetPoint" />
          </mxGeometry>
        </mxCell>
        <mxCell id="zg2woen_plqJoiy4kxWq-13" value="Use" style="endArrow=open;endSize=12;dashed=1;html=1;rounded=0;exitX=0.492;exitY=1;exitDx=0;exitDy=0;exitPerimeter=0;entryX=0.25;entryY=0;entryDx=0;entryDy=0;" edge="1" parent="1" source="EMzOzfNaIFovosaDYvhn-15" target="EMzOzfNaIFovosaDYvhn-22">
          <mxGeometry width="160" relative="1" as="geometry">
            <mxPoint x="379" y="403" as="sourcePoint" />
            <mxPoint x="495" y="480" as="targetPoint" />
          </mxGeometry>
        </mxCell>
        <mxCell id="zg2woen_plqJoiy4kxWq-14" value="" style="endArrow=block;dashed=1;endFill=0;endSize=12;html=1;rounded=0;entryX=0.364;entryY=1;entryDx=0;entryDy=0;entryPerimeter=0;exitX=0.707;exitY=-0.01;exitDx=0;exitDy=0;exitPerimeter=0;" edge="1" parent="1" source="zg2woen_plqJoiy4kxWq-2" target="zg2woen_plqJoiy4kxWq-1">
          <mxGeometry width="160" relative="1" as="geometry">
            <mxPoint x="511" y="439" as="sourcePoint" />
            <mxPoint x="607" y="389" as="targetPoint" />
          </mxGeometry>
        </mxCell>
        <mxCell id="zg2woen_plqJoiy4kxWq-17" value="Event" style="ellipse;whiteSpace=wrap;html=1;" vertex="1" parent="1">
          <mxGeometry x="210" y="180" width="90" height="60" as="geometry" />
        </mxCell>
        <mxCell id="zg2woen_plqJoiy4kxWq-18" value="dispatch" style="html=1;verticalAlign=bottom;startArrow=oval;startFill=1;endArrow=block;startSize=8;elbow=vertical;rounded=0;exitX=0.575;exitY=0.975;exitDx=0;exitDy=0;exitPerimeter=0;entryX=0.2;entryY=0.014;entryDx=0;entryDy=0;entryPerimeter=0;" edge="1" parent="1" source="zg2woen_plqJoiy4kxWq-17" target="EMzOzfNaIFovosaDYvhn-18">
          <mxGeometry width="60" relative="1" as="geometry">
            <mxPoint x="630" y="460" as="sourcePoint" />
            <mxPoint x="690" y="460" as="targetPoint" />
          </mxGeometry>
        </mxCell>
      </root>
    </mxGraphModel>
  </diagram>
</mxfile>
